<svg width="144" height="36" viewBox="0 0 144 36" fill="none" xmlns="http://www.w3.org/2000/svg">
<g clip-path="url(#clip0_5203_2549)">
<path d="M61.224 15.3703C61.9294 14.1931 63.0723 13.6336 64.612 13.6336C66.2929 13.6336 67.6104 14.389 68.2823 15.6226C68.6906 15.0003 69.2477 14.4898 69.9031 14.1375C70.5586 13.7852 71.2915 13.6023 72.0355 13.6054C75.0885 13.6054 77.078 15.6226 77.078 19.4913V25.8272C77.078 26.752 76.63 27.172 75.6776 27.172C74.7816 27.172 74.3336 26.752 74.3336 25.8272V19.2106C74.3336 17.4175 73.2966 16.3233 71.7551 16.3233C70.2436 16.3233 69.1783 17.5005 69.1783 19.2106V25.8272C69.1783 26.6955 68.6739 27.172 67.8061 27.172C66.9102 27.172 66.4622 26.752 66.4622 25.8272V19.2106C66.4622 17.4175 65.404 16.3233 63.8836 16.3233C62.3157 16.3233 61.3068 17.474 61.3068 19.2106V25.8272C61.3068 26.6955 60.8024 27.172 59.9629 27.172C59.0934 27.172 58.6172 26.6955 58.6172 25.8272V15.3703C58.6172 14.5584 58.9258 13.9407 59.8518 13.9407C60.6349 13.9425 61.0829 14.3343 61.224 15.3703Z" fill="white"/>
<path d="M81.834 20.7534C82.1409 22.9665 83.4213 24.532 85.977 24.532C87.0771 24.5521 88.1456 24.1628 88.9753 23.4395C89.1238 23.2855 89.3023 23.1636 89.4998 23.0813C89.6973 22.999 89.9096 22.9582 90.1234 22.9612C90.4612 22.9664 90.7833 23.1048 91.0195 23.3465C91.2557 23.5881 91.3869 23.9134 91.3845 24.2514C91.3845 25.5415 89.1146 27.167 85.8941 27.167C84.9969 27.17 84.1081 26.995 83.279 26.6521C82.4499 26.3091 81.6971 25.8051 81.0639 25.1691C80.4308 24.5331 79.93 23.7777 79.5905 22.9468C79.251 22.1158 79.0796 21.2257 79.0861 20.328C79.0861 16.4312 82.1126 13.4591 85.8941 13.4591C89.8148 13.4591 92.2805 16.4877 92.2805 18.9303C92.2805 20.1074 91.5521 20.7534 90.2363 20.7534H81.834ZM89.5943 18.6779C89.2874 17.0524 87.8306 16.0447 85.9258 16.0447C84.1039 16.0447 82.4795 17.0524 81.9751 18.6779H89.5943Z" fill="white"/>
<path d="M96.8941 15.5948C97.4232 14.4741 98.6878 13.6888 100.116 13.6888C101.545 13.6888 103.45 14.4741 103.45 15.8472C103.45 16.6043 102.945 17.222 102.161 17.222C101.787 17.2218 101.428 17.0813 101.153 16.8285C100.716 16.456 100.158 16.2564 99.5837 16.2672C97.8465 16.2672 96.9223 17.5291 96.9223 19.1828V25.2946C96.9223 26.53 96.6701 27.1724 95.5783 27.1724C94.5413 27.1724 94.2891 26.5265 94.2891 25.2311V15.4554C94.2891 14.5853 94.6541 14.0258 95.4655 14.0258C96.4461 14.0258 96.6983 14.5024 96.8941 15.5948Z" fill="white"/>
<path d="M107.2 20.7532C107.508 22.9663 108.787 24.5371 111.346 24.5371C112.446 24.5572 113.515 24.1679 114.345 23.4446C114.493 23.2907 114.672 23.1688 114.869 23.0865C115.067 23.0043 115.279 22.9634 115.493 22.9663C115.831 22.971 116.153 23.1093 116.389 23.3511C116.626 23.5928 116.757 23.9183 116.754 24.2565C116.754 25.5466 114.486 27.172 111.263 27.172C110.366 27.1751 109.478 27.0001 108.649 26.6571C107.82 26.3142 107.067 25.8101 106.434 25.1741C105.801 24.538 105.3 23.7827 104.961 22.9517C104.622 22.1208 104.45 21.2308 104.457 20.3331C104.457 16.4363 107.482 13.4642 111.263 13.4642C115.186 13.4642 117.65 16.4928 117.65 18.9354C117.65 20.1125 116.921 20.7585 115.606 20.7585L107.2 20.7532ZM114.96 18.6777C114.651 17.0522 113.196 16.0445 111.29 16.0445C109.47 16.0445 107.844 17.0522 107.341 18.6777H114.96Z" fill="white"/>
<path d="M122.376 21.7082V25.688C122.376 26.6975 121.928 27.174 121.032 27.174C120.108 27.174 119.66 26.6975 119.66 25.688V9.00106C119.66 7.99155 120.108 7.45856 121.032 7.45856C121.928 7.45856 122.376 7.98802 122.376 9.00106V18.0549L126.662 14.271C126.936 14.0124 127.295 13.863 127.671 13.851C128.428 13.851 129.015 14.3804 129.015 15.1111C129.008 15.3264 128.951 15.5372 128.849 15.727C128.747 15.9167 128.603 16.0804 128.428 16.2053L124.029 19.8215L129.184 24.7261C129.632 25.1462 129.771 25.5115 129.771 25.8751C129.769 26.2114 129.637 26.5338 129.402 26.7745C129.167 27.0151 128.848 27.1552 128.512 27.1652C128.175 27.1652 127.807 27.024 127.39 26.6357L122.376 21.7082Z" fill="white"/>
<path d="M142.684 13.662C143.552 13.662 144.002 14.1385 144.002 15.118V25.4143C144.002 26.5368 143.721 27.0963 142.741 27.0963C141.899 27.0963 141.48 26.4521 141.34 25.1073C140.666 26.3427 138.903 27.181 137.107 27.181C133.382 27.181 130.777 24.1807 130.777 20.3421C130.777 16.4452 133.354 13.4732 137.107 13.4732C138.929 13.4732 140.693 14.2303 141.393 15.6034C141.45 14.6133 141.702 13.662 142.684 13.662ZM133.497 20.3333C133.497 22.6594 135.121 24.4807 137.389 24.4807C139.658 24.4807 141.284 22.6594 141.284 20.3333C141.284 18.0901 139.659 16.184 137.389 16.184C135.12 16.184 133.495 18.0901 133.495 20.3333H133.497Z" fill="white"/>
<path d="M38.2327 35.9688C41.9576 35.9688 44.9771 32.9472 44.9771 29.2199C44.9771 25.4926 41.9576 22.471 38.2327 22.471C34.5079 22.471 31.4883 25.4926 31.4883 29.2199C31.4883 32.9472 34.5079 35.9688 38.2327 35.9688Z" fill="white"/>
<path d="M29.0438 19.5019C28.9486 19.7737 28.8662 20.0514 28.7969 20.3349C28.8163 20.282 28.8357 20.2308 28.8533 20.1778C28.8974 20.0014 28.9468 19.846 28.9997 19.6819C29.0156 19.6219 29.0314 19.5619 29.0438 19.5019Z" fill="white"/>
<path d="M22.5234 11.2531C22.6716 11.2619 22.8197 11.2689 22.9697 11.2707C22.8215 11.2601 22.6734 11.2531 22.5234 11.2531Z" fill="white"/>
<path d="M15.7227 18.002C15.7237 19.5859 16.2813 21.119 17.2979 22.3331C18.3145 23.5472 19.7253 24.365 21.2836 24.6433C22.8419 24.9215 24.4483 24.6427 25.8218 23.8554C27.1954 23.0682 28.2485 21.8227 28.797 20.3369C28.8652 20.0533 28.9476 19.7757 29.044 19.5039C29.6602 17.7433 30.8079 16.2179 32.3284 15.1385C33.8488 14.0591 35.6668 13.479 37.531 13.4786H37.6967C37.8449 13.4786 37.9913 13.4874 38.1377 13.4962H38.2047C39.4443 13.4962 40.66 13.1543 41.7182 12.5082C42.7764 11.8621 43.6362 10.9367 44.2033 9.83364C44.7703 8.73058 45.0227 7.49251 44.9327 6.25533C44.8426 5.01815 44.4137 3.82971 43.6929 2.82049C42.9722 1.81127 41.9874 1.02029 40.8469 0.53438C39.7063 0.0484743 38.454 -0.113565 37.2274 0.0660517C36.0009 0.245669 34.8475 0.759996 33.8939 1.55257C32.9403 2.34514 32.2234 3.38531 31.8218 4.55888C31.776 4.73537 31.723 4.91186 31.6648 5.08835C31.0713 6.8858 29.9266 8.45025 28.3934 9.55923C26.8603 10.6682 25.0167 11.2652 23.125 11.2654H22.9715C22.8216 11.2654 22.6734 11.2654 22.5253 11.2478H22.4671C21.581 11.248 20.7037 11.4229 19.8852 11.7625C19.0666 12.1021 18.323 12.5997 17.6967 13.2269C17.0704 13.8541 16.5737 14.5986 16.235 15.4179C15.8963 16.2372 15.7222 17.1153 15.7227 18.002Z" fill="white"/>
<path d="M38.1362 13.4979C37.9898 13.4979 37.8435 13.482 37.6953 13.4802C37.8417 13.4908 37.9881 13.4979 38.1362 13.4979Z" fill="white"/>
<path d="M31.6641 5.09901C31.7223 4.92253 31.7752 4.74604 31.821 4.56955C31.8218 4.57304 31.8218 4.57665 31.821 4.58014C31.7769 4.7478 31.7276 4.9137 31.6746 5.07607C31.6706 5.08346 31.667 5.09112 31.6641 5.09901Z" fill="white"/>
<path d="M15.9023 19.5019C15.9976 19.7737 16.0799 20.0514 16.1493 20.3349C16.1299 20.282 16.1122 20.2308 16.0946 20.1778C16.0487 20.0014 16.0011 19.846 15.9464 19.6819C15.9306 19.6219 15.9165 19.5619 15.9023 19.5019Z" fill="white"/>
<path d="M22.421 11.2531C22.2746 11.2619 22.1247 11.2689 21.9766 11.2707C22.123 11.2601 22.2711 11.2531 22.421 11.2531Z" fill="white"/>
<path d="M29.2269 18.002C29.2259 19.5859 28.6683 21.119 27.6517 22.3331C26.6351 23.5472 25.2242 24.365 23.666 24.6433C22.1077 24.9215 20.5013 24.6427 19.1277 23.8554C17.7542 23.0682 16.701 21.8227 16.1525 20.3369C16.0843 20.0533 16.002 19.7757 15.9056 19.5039C15.2892 17.7431 14.1412 16.2174 12.6205 15.138C11.0997 14.0585 9.28133 13.4787 7.41683 13.4786H7.25104C7.10289 13.4786 6.9565 13.4874 6.81188 13.4962H6.7431C5.50325 13.4964 4.28735 13.1546 3.22892 12.5085C2.17049 11.8624 1.31047 10.9369 0.743314 9.83362C0.176157 8.73037 -0.0762009 7.49206 0.0139557 6.25469C0.104112 5.01731 0.533296 3.82872 1.25437 2.81947C1.97545 1.81021 2.96053 1.01932 4.10142 0.533645C5.24232 0.0479742 6.4949 -0.113688 7.72161 0.0664135C8.94831 0.246515 10.1017 0.761412 11.0551 1.55456C12.0085 2.34771 12.725 3.38842 13.126 4.56241C13.1736 4.7389 13.2265 4.91539 13.2847 5.09188C13.8781 6.88904 15.0226 8.45329 16.5554 9.56224C18.0882 10.6712 19.9314 11.2684 21.8228 11.269H21.978C22.1262 11.269 22.2761 11.269 22.4225 11.2513H22.4807C23.3666 11.2513 24.2439 11.4259 25.0624 11.7652C25.8808 12.1044 26.6245 12.6017 27.251 13.2285C27.8774 13.8554 28.3743 14.5996 28.7134 15.4186C29.0524 16.2376 29.2269 17.1155 29.2269 18.002Z" fill="white"/>
<path d="M6.8125 13.4979C6.95712 13.4979 7.10351 13.482 7.25166 13.4802C7.10704 13.4908 6.96065 13.4979 6.8125 13.4979Z" fill="white"/>
<path d="M13.2837 5.09901C13.2255 4.92253 13.1726 4.74604 13.125 4.56955C13.125 4.56955 13.125 4.56955 13.125 4.58014C13.1691 4.7478 13.2185 4.9137 13.2732 5.07607C13.2784 5.0796 13.282 5.08842 13.2837 5.09901Z" fill="white"/>
<path d="M11.5856 24.5318C12.5132 25.4817 13.1401 26.6845 13.3878 27.9893C13.6355 29.2941 13.4929 30.6431 12.9779 31.8672C12.4629 33.0914 11.5984 34.1362 10.4926 34.8709C9.38691 35.6056 8.08912 35.9975 6.76183 35.9975C5.43453 35.9975 4.13674 35.6056 3.03101 34.8709C1.92529 34.1362 1.06078 33.0914 0.545778 31.8672C0.0307767 30.6431 -0.111822 29.2941 0.135844 27.9893C0.38351 26.6845 1.01043 25.4817 1.93807 24.5318C2.01333 24.4612 2.0874 24.3888 2.1603 24.3147C3.81861 22.633 4.74653 20.3643 4.74238 18.0018C4.74548 15.6365 3.81494 13.3657 2.15325 11.6835L1.93807 11.4717C1.00982 10.5217 0.382385 9.31863 0.134364 8.01334C-0.113657 6.70805 0.0287705 5.35854 0.543802 4.13389C1.05883 2.90924 1.92357 1.86391 3.02966 1.12885C4.13576 0.393798 5.43403 0.00170898 6.76183 0.00170898C8.08962 0.00170898 9.38789 0.393798 10.494 1.12885C11.6001 1.86391 12.4648 2.90924 12.9798 4.13389C13.4949 5.35854 13.6373 6.70805 13.3893 8.01334C13.1413 9.31863 12.5138 10.5217 11.5856 11.4717L11.3616 11.6835C9.70338 13.3675 8.77385 15.6367 8.77385 18.0009C8.77385 20.365 9.70338 22.6342 11.3616 24.3183C11.4357 24.3924 11.508 24.4647 11.5838 24.5353L11.5856 24.5318Z" fill="white"/>
</g>
<defs>
<clipPath id="clip0_5203_2549">
<rect width="144" height="36" fill="white"/>
</clipPath>
</defs>
</svg>
