<svg width="69" height="61" viewBox="0 0 69 61" fill="none" xmlns="http://www.w3.org/2000/svg">
<path d="M6.65555 0.292893C7.04607 -0.0976311 7.67924 -0.0976311 8.06976 0.292893L14.4337 6.65685C14.8242 7.04738 14.8242 7.68054 14.4337 8.07107C14.0432 8.46159 13.41 8.46159 13.0195 8.07107L7.36266 2.41421L1.7058 8.07107C1.31528 8.46159 0.682114 8.46159 0.291588 8.07107C-0.098938 7.68054 -0.098938 7.04738 0.291588 6.65685L6.65555 0.292893ZM68.8633 60V61C38.02 61 22.2135 54.1541 14.2358 42.9552C10.2644 37.3803 8.30622 30.8201 7.33286 23.7138C6.36092 16.618 6.36266 8.90068 6.36266 1H7.36266H8.36266C8.36266 8.93265 8.36439 16.507 9.31435 23.4424C10.2629 30.3674 12.1484 36.578 15.8647 41.7948C23.2622 52.1792 38.2059 59 68.8633 59V60Z" fill="black"/>
</svg>
