<svg preserveAspectRatio="none" width="100%" height="100%" overflow="visible" style="display: block;" viewBox="0 0 68.8646 61" fill="none" xmlns="http://www.w3.org/2000/svg">
<path id="Vector 1" d="M62.2077 0.292893C61.8172 -0.0976311 61.184 -0.0976311 60.7935 0.292893L54.4296 6.65685C54.039 7.04738 54.039 7.68054 54.4296 8.07107C54.8201 8.46159 55.4532 8.46159 55.8438 8.07107L61.5006 2.41421L67.1575 8.07107C67.548 8.46159 68.1812 8.46159 68.5717 8.07107C68.9622 7.68054 68.9622 7.04738 68.5717 6.65685L62.2077 0.292893ZM0 60V61C30.8432 61 46.6498 54.1541 54.6275 42.9552C58.5988 37.3803 60.5571 30.8201 61.5304 23.7138C62.5024 16.618 62.5006 8.90068 62.5006 1H61.5006H60.5006C60.5006 8.93265 60.4989 16.507 59.5489 23.4424C58.6004 30.3674 56.7148 36.578 52.9986 41.7948C45.6011 52.1792 30.6574 59 0 59V60Z" fill="var(--stroke-0, black)"/>
</svg>
