<svg preserveAspectRatio="none" width="100%" height="100%" overflow="visible" style="display: block;" viewBox="0 0 96.0029 24.0017" fill="none" xmlns="http://www.w3.org/2000/svg">
<g id="Vector group">
<path id="Vector" d="M40.8187 10.2502C41.289 9.46546 42.051 9.09248 43.0775 9.09248C44.198 9.09248 45.0763 9.59606 45.5243 10.4185C45.7965 10.0036 46.1679 9.66325 46.6048 9.4284C47.0418 9.19355 47.5304 9.07161 48.0264 9.07365C50.0618 9.07365 51.3881 10.4185 51.3881 12.9976V17.2215C51.3881 17.838 51.0894 18.1181 50.4545 18.1181C49.8572 18.1181 49.5585 17.838 49.5585 17.2215V12.8105C49.5585 11.6151 48.8671 10.8856 47.8395 10.8856C46.8318 10.8856 46.1216 11.6704 46.1216 12.8105V17.2215C46.1216 17.8004 45.7853 18.1181 45.2068 18.1181C44.6095 18.1181 44.3109 17.838 44.3109 17.2215V12.8105C44.3109 11.6151 43.6054 10.8856 42.5918 10.8856C41.5466 10.8856 40.874 11.6527 40.874 12.8105V17.2215C40.874 17.8004 40.5377 18.1181 39.978 18.1181C39.3983 18.1181 39.0809 17.8004 39.0809 17.2215V10.2502C39.0809 9.70901 39.2866 9.29721 39.9039 9.29721C40.426 9.29838 40.7247 9.55958 40.8187 10.2502Z" fill="var(--fill-0, #1A1623)"/>
<path id="Vector_2" d="M54.5592 13.839C54.7638 15.3144 55.6174 16.3581 57.3211 16.3581C58.0546 16.3715 58.7669 16.1119 59.32 15.6298C59.419 15.5271 59.5381 15.4458 59.6697 15.3909C59.8014 15.3361 59.9429 15.3089 60.0855 15.3109C60.3107 15.3143 60.5254 15.4066 60.6828 15.5677C60.8403 15.7288 60.9278 15.9456 60.9262 16.171C60.9262 17.0311 59.4129 18.1147 57.2659 18.1147C56.6678 18.1167 56.0753 18.0001 55.5225 17.7715C54.9698 17.5428 54.4679 17.2068 54.0458 16.7828C53.6237 16.3588 53.2898 15.8552 53.0635 15.3013C52.8372 14.7473 52.7229 14.1539 52.7273 13.5554C52.7273 10.9575 54.7449 8.97616 57.2659 8.97616C59.8797 8.97616 61.5235 10.9952 61.5235 12.6236C61.5235 13.4084 61.0379 13.839 60.1607 13.839H54.5592ZM59.7327 12.4553C59.5281 11.3717 58.5569 10.6999 57.2871 10.6999C56.0724 10.6999 54.9895 11.3717 54.6532 12.4553H59.7327Z" fill="var(--fill-0, #1A1623)"/>
<path id="Vector_3" d="M64.5994 10.3999C64.9521 9.65281 65.7952 9.12923 66.7476 9.12923C67.7 9.12923 68.9699 9.65281 68.9699 10.5682C68.9699 11.073 68.6336 11.4848 68.1103 11.4848C67.8616 11.4846 67.622 11.3909 67.4389 11.2224C67.1474 10.974 66.7752 10.841 66.3925 10.8482C65.2343 10.8482 64.6182 11.6895 64.6182 12.7919V16.8665C64.6182 17.6901 64.45 18.1183 63.7222 18.1183C63.0308 18.1183 62.8627 17.6877 62.8627 16.8241V10.307C62.8627 9.72694 63.1061 9.35396 63.647 9.35396C64.3007 9.35396 64.4689 9.67164 64.5994 10.3999Z" fill="var(--fill-0, #1A1623)"/>
<path id="Vector_4" d="M71.4696 13.8388C71.6754 15.3143 72.5278 16.3614 74.2339 16.3614C74.9674 16.3749 75.6797 16.1153 76.2328 15.6331C76.3319 15.5305 76.4509 15.4493 76.5826 15.3944C76.7142 15.3396 76.8557 15.3123 76.9983 15.3143C77.2235 15.3174 77.4384 15.4096 77.5959 15.5708C77.7535 15.7319 77.8409 15.9489 77.839 16.1744C77.839 17.0345 76.3269 18.1181 74.1787 18.1181C73.5806 18.1201 72.9882 18.0035 72.4355 17.7748C71.8828 17.5462 71.381 17.2101 70.959 16.7861C70.537 16.3621 70.2033 15.8585 69.9771 15.3045C69.7509 14.7506 69.6367 14.1572 69.6412 13.5588C69.6412 10.9609 71.6577 8.97954 74.1787 8.97954C76.7937 8.97954 78.4363 10.9986 78.4363 12.627C78.4363 13.4117 77.9507 13.8424 77.0735 13.8424L71.4696 13.8388ZM76.6432 12.4552C76.4374 11.3715 75.4674 10.6997 74.1963 10.6997C72.9829 10.6997 71.8988 11.3715 71.5637 12.4552H76.6432Z" fill="var(--fill-0, #1A1623)"/>
<path id="Vector_5" d="M81.5863 14.4755V17.1287C81.5863 17.8017 81.2876 18.1194 80.6903 18.1194C80.0742 18.1194 79.7756 17.8017 79.7756 17.1287V6.0041C79.7756 5.3311 80.0742 4.97577 80.6903 4.97577C81.2876 4.97577 81.5863 5.32874 81.5863 6.0041V12.04L84.4435 9.51739C84.626 9.345 84.8652 9.2454 85.1161 9.23736C85.6205 9.23736 86.012 9.59034 86.012 10.0774C86.0073 10.221 85.9695 10.3615 85.9016 10.488C85.8337 10.6146 85.7375 10.7237 85.6205 10.8069L82.688 13.2178L86.1249 16.4875C86.4236 16.7675 86.5165 17.0111 86.5165 17.2534C86.515 17.4777 86.4267 17.6926 86.2702 17.853C86.1136 18.0134 85.9009 18.1068 85.6769 18.1135C85.4524 18.1135 85.2066 18.0194 84.9291 17.7606L81.5863 14.4755Z" fill="var(--fill-0, #1A1623)"/>
<path id="Vector_6" d="M95.1246 9.11142C95.7031 9.11142 96.0029 9.4291 96.0029 10.0821V16.9463C96.0029 17.6946 95.816 18.0676 95.1622 18.0676C94.6014 18.0676 94.3215 17.6381 94.2286 16.7416C93.7795 17.5652 92.6037 18.1241 91.4067 18.1241C88.9234 18.1241 87.1867 16.1239 87.1867 13.5648C87.1867 10.9669 88.9046 8.98552 91.4067 8.98552C92.6213 8.98552 93.7971 9.49028 94.2639 10.4057C94.3015 9.7456 94.4697 9.11142 95.1246 9.11142ZM88.9998 13.5589C88.9998 15.1097 90.0827 16.3239 91.5948 16.3239C93.1069 16.3239 94.191 15.1097 94.191 13.5589C94.191 12.0635 93.1081 10.7928 91.5948 10.7928C90.0815 10.7928 88.9986 12.0635 88.9986 13.5589H88.9998Z" fill="var(--fill-0, #1A1623)"/>
<path id="Vector_7" d="M25.4921 23.9826C27.9753 23.9826 29.9884 21.9682 29.9884 19.4833C29.9884 16.9984 27.9753 14.9841 25.4921 14.9841C23.0088 14.9841 20.9958 16.9984 20.9958 19.4833C20.9958 21.9682 23.0088 23.9826 25.4921 23.9826Z" fill="var(--fill-0, #1A1623)"/>
<path id="Vector_8" d="M19.3649 13.0047C19.3014 13.1859 19.2466 13.371 19.2003 13.56C19.2133 13.5247 19.2262 13.4906 19.2379 13.4553C19.2673 13.3376 19.3003 13.2341 19.3355 13.1247C19.3461 13.0847 19.3567 13.0447 19.3649 13.0047Z" fill="var(--fill-0, #1A1623)"/>
<path id="Vector_9" d="M15.0191 7.50544C15.1179 7.51132 15.2166 7.51602 15.3166 7.5172C15.2178 7.51014 15.1191 7.50544 15.0191 7.50544Z" fill="var(--fill-0, #1A1623)"/>
<path id="Vector_10" d="M10.484 12.0047C10.4847 13.0607 10.8564 14.0828 11.5342 14.8922C12.2119 15.7016 13.1525 16.2467 14.1913 16.4322C15.2302 16.6178 16.3011 16.4318 17.2168 15.907C18.1325 15.3822 18.8346 14.5519 19.2003 13.5613V13.5613C19.2458 13.3723 19.3006 13.1872 19.3649 13.006C19.7758 11.8323 20.5409 10.8153 21.5545 10.0957C22.5681 9.37612 23.7801 8.98942 25.0229 8.98912H25.1334C25.2322 8.98912 25.3298 8.995 25.4274 9.00088H25.4721C26.2985 9.00084 27.1089 8.77293 27.8144 8.34219C28.5198 7.91145 29.0931 7.29453 29.4711 6.55916C29.8491 5.82379 30.0174 4.9984 29.9574 4.17362C29.8974 3.34883 29.6114 2.55654 29.1309 1.88373C28.6504 1.21091 27.9939 0.683588 27.2335 0.359651C26.4731 0.0357138 25.6383 -0.0723125 24.8206 0.0474321C24.0028 0.167177 23.2339 0.510062 22.5982 1.03844C21.9625 1.56683 21.4845 2.26027 21.2168 3.04265C21.1862 3.16031 21.151 3.27797 21.1122 3.39563C20.7165 4.59393 19.9533 5.6369 18.9312 6.37621C17.9091 7.11553 16.6801 7.51355 15.4189 7.51368H15.3166C15.2167 7.51368 15.1179 7.51368 15.0191 7.50191H14.9803C14.3896 7.50207 13.8047 7.61867 13.259 7.84505C12.7134 8.07144 12.2176 8.40317 11.8001 8.82131C11.3825 9.23945 11.0514 9.7358 10.8256 10.282C10.5998 10.8282 10.4837 11.4136 10.484 12.0047V12.0047Z" fill="var(--fill-0, #1A1623)"/>
<path id="Vector_11" d="M25.4274 9.00198C25.3298 9.00198 25.2323 8.99138 25.1335 8.99021C25.2311 8.99727 25.3287 9.00198 25.4274 9.00198Z" fill="var(--fill-0, #1A1623)"/>
<path id="Vector_12" d="M21.1122 3.40274C21.151 3.28508 21.1862 3.16743 21.2168 3.04977C21.2173 3.05209 21.2173 3.0545 21.2168 3.05683C21.1874 3.1686 21.1545 3.2792 21.1192 3.38745C21.1165 3.39237 21.1142 3.39748 21.1122 3.40274V3.40274Z" fill="var(--fill-0, #1A1623)"/>
<path id="Vector_13" d="M10.6051 13.0047C10.6686 13.1859 10.7235 13.371 10.7697 13.56C10.7568 13.5247 10.7451 13.4906 10.7333 13.4553C10.7027 13.3376 10.671 13.2341 10.6345 13.1247C10.6239 13.0847 10.6145 13.0447 10.6051 13.0047Z" fill="var(--fill-0, #1A1623)"/>
<path id="Vector_14" d="M14.951 7.50544C14.8534 7.51132 14.7534 7.51602 14.6547 7.5172C14.7523 7.51014 14.851 7.50544 14.951 7.50544Z" fill="var(--fill-0, #1A1623)"/>
<path id="Vector_15" d="M19.4872 12.0047C19.4865 13.0607 19.1148 14.0828 18.4371 14.8922C17.7593 15.7016 16.8188 16.2467 15.7799 16.4322C14.7411 16.6178 13.6701 16.4318 12.7544 15.907C11.8387 15.3822 11.1366 14.5519 10.7709 13.5613V13.5613C10.7255 13.3723 10.6706 13.1872 10.6063 13.006C10.1954 11.8321 9.43009 10.815 8.41625 10.0954C7.40242 9.37576 6.19016 8.98918 4.94716 8.98912H4.83663C4.73787 8.98912 4.64027 8.995 4.54386 9.00088H4.498C3.67144 9.00098 2.86084 8.77315 2.15522 8.34239C1.4496 7.91164 0.876252 7.29464 0.498147 6.55914C0.120042 5.82365 -0.0481964 4.99811 0.011908 4.17319C0.0720124 3.34827 0.358135 2.55588 0.838852 1.88304C1.31957 1.2102 1.97629 0.682941 2.73689 0.359161C3.49748 0.0353806 4.33254 -0.0723939 5.15034 0.0476735C5.96815 0.167741 6.73707 0.511006 7.37266 1.03977C8.00826 1.56853 8.48594 2.26235 8.75325 3.04501C8.785 3.16267 8.82027 3.28032 8.85907 3.39798C9.25467 4.59609 10.0176 5.63892 11.0395 6.37822C12.0614 7.11752 13.2902 7.51566 14.5512 7.51603H14.6546C14.7534 7.51603 14.8533 7.51603 14.9509 7.50427H14.9897C15.5804 7.50427 16.1652 7.62067 16.7108 7.84684C17.2565 8.07301 17.7523 8.40451 18.1699 8.82242C18.5876 9.24032 18.9188 9.73645 19.1449 10.2825C19.3709 10.8285 19.4872 11.4137 19.4872 12.0047V12.0047Z" fill="var(--fill-0, #1A1623)"/>
<path id="Vector_16" d="M4.54387 9.00198C4.64028 9.00198 4.73787 8.99138 4.83664 8.99021C4.74022 8.99727 4.64263 9.00198 4.54387 9.00198Z" fill="var(--fill-0, #1A1623)"/>
<path id="Vector_17" d="M8.85907 3.40274C8.82027 3.28508 8.78499 3.16743 8.75325 3.04977C8.75325 3.04977 8.75325 3.04977 8.75325 3.05683C8.78264 3.1686 8.81556 3.2792 8.85201 3.38745C8.85554 3.3898 8.85789 3.39568 8.85907 3.40274Z" fill="var(--fill-0, #1A1623)"/>
<path id="Vector_18" d="M7.7268 16.3579C8.34523 16.9912 8.76318 17.793 8.92829 18.6629C9.0934 19.5328 8.99834 20.4321 8.655 21.2482C8.31167 22.0643 7.73533 22.7609 6.99818 23.2507C6.26103 23.7405 5.39583 24.0017 4.51097 24.0017C3.62611 24.0017 2.76091 23.7405 2.02376 23.2507C1.28661 22.7609 0.710272 22.0643 0.366938 21.2482C0.023604 20.4321 -0.0714615 19.5328 0.0936489 18.6629C0.258759 17.793 0.676705 16.9912 1.29514 16.3579V16.3579C1.3453 16.3109 1.39469 16.2626 1.44329 16.2132C2.54882 15.0921 3.16744 13.5796 3.16467 12.0046C3.16674 10.4277 2.54638 8.91384 1.43858 7.79239L1.29514 7.6512C0.676302 7.01784 0.258009 6.21582 0.0926622 5.34562C-0.072685 4.47543 0.0222665 3.57576 0.365621 2.75933C0.708975 1.9429 1.28546 1.24601 2.02286 0.755969C2.76026 0.265932 3.62577 0.0045393 4.51097 0.0045393C5.39617 0.0045393 6.26168 0.265932 6.99908 0.755969C7.73648 1.24601 8.31296 1.9429 8.65632 2.75933C8.99967 3.57576 9.09462 4.47543 8.92928 5.34562C8.76393 6.21582 8.34564 7.01784 7.7268 7.6512L7.57748 7.79239C6.472 8.91506 5.85232 10.4279 5.85232 12.004C5.85232 13.5801 6.472 15.0929 7.57748 16.2156C7.62686 16.265 7.67507 16.3132 7.72563 16.3603L7.7268 16.3579Z" fill="var(--fill-0, #1A1623)"/>
</g>
</svg>
