<svg width="96" height="24" viewBox="0 0 96 24" fill="none" xmlns="http://www.w3.org/2000/svg">
<g clip-path="url(#clip0_814_29391)">
<path d="M40.816 10.2467C41.2863 9.4619 42.0482 9.08892 43.0747 9.08892C44.1952 9.08892 45.0736 9.5925 45.5216 10.4149C45.7937 10 46.1651 9.65969 46.6021 9.42484C47.039 9.18998 47.5277 9.06805 48.0237 9.07009C50.059 9.07009 51.3853 10.4149 51.3853 12.994V17.218C51.3853 17.8345 51.0867 18.1145 50.4517 18.1145C49.8544 18.1145 49.5558 17.8345 49.5558 17.218V12.8069C49.5558 11.6115 48.8644 10.882 47.8367 10.882C46.8291 10.882 46.1189 11.6668 46.1189 12.8069V17.218C46.1189 17.7968 45.7826 18.1145 45.2041 18.1145C44.6068 18.1145 44.3081 17.8345 44.3081 17.218V12.8069C44.3081 11.6115 43.6026 10.882 42.5891 10.882C41.5438 10.882 40.8712 11.6492 40.8712 12.8069V17.218C40.8712 17.7968 40.535 18.1145 39.9753 18.1145C39.3956 18.1145 39.0781 17.7968 39.0781 17.218V10.2467C39.0781 9.70545 39.2839 9.29365 39.9012 9.29365C40.4232 9.29482 40.7219 9.55602 40.816 10.2467Z" fill="#1A1623"/>
<path d="M54.5547 13.8357C54.7593 15.3112 55.6129 16.3548 57.3167 16.3548C58.0501 16.3682 58.7624 16.1087 59.3155 15.6265C59.4146 15.5238 59.5336 15.4425 59.6652 15.3877C59.7969 15.3328 59.9384 15.3056 60.081 15.3076C60.3062 15.311 60.5209 15.4034 60.6783 15.5645C60.8358 15.7255 60.9233 15.9424 60.9217 16.1677C60.9217 17.0278 59.4084 18.1114 57.2614 18.1114C56.6633 18.1135 56.0708 17.9968 55.5181 17.7682C54.9653 17.5396 54.4634 17.2035 54.0413 16.7795C53.6192 16.3555 53.2854 15.852 53.059 15.298C52.8327 14.744 52.7184 14.1506 52.7228 13.5522C52.7228 10.9543 54.7405 8.9729 57.2614 8.9729C59.8752 8.9729 61.519 10.9919 61.519 12.6203C61.519 13.4051 61.0334 13.8357 60.1563 13.8357H54.5547ZM59.7283 12.4521C59.5237 11.3684 58.5524 10.6966 57.2826 10.6966C56.068 10.6966 54.985 11.3684 54.6488 12.4521H59.7283Z" fill="#1A1623"/>
<path d="M64.596 10.3964C64.9488 9.64931 65.7918 9.12573 66.7442 9.12573C67.6967 9.12573 68.9665 9.64931 68.9665 10.5647C68.9665 11.0695 68.6302 11.4813 68.107 11.4813C67.8583 11.4811 67.6186 11.3874 67.4356 11.2189C67.1441 10.9705 66.7719 10.8375 66.3892 10.8447C65.231 10.8447 64.6149 11.686 64.6149 12.7884V16.863C64.6149 17.6866 64.4467 18.1149 63.7189 18.1149C63.0275 18.1149 62.8594 17.6842 62.8594 16.8206V10.3035C62.8594 9.72344 63.1028 9.35046 63.6436 9.35046C64.2974 9.35046 64.4655 9.66814 64.596 10.3964Z" fill="#1A1623"/>
<path d="M71.4652 13.8354C71.671 15.3108 72.5235 16.358 74.2296 16.358C74.963 16.3714 75.6753 16.1118 76.2284 15.6297C76.3275 15.527 76.4465 15.4458 76.5782 15.391C76.7098 15.3361 76.8513 15.3088 76.9939 15.3108C77.2192 15.3139 77.434 15.4061 77.5916 15.5673C77.7491 15.7285 77.8365 15.9455 77.8346 16.1709C77.8346 17.031 76.3225 18.1146 74.1743 18.1146C73.5763 18.1167 72.9838 18 72.4311 17.7713C71.8785 17.5427 71.3766 17.2067 70.9546 16.7826C70.5326 16.3586 70.1989 15.855 69.9727 15.3011C69.7465 14.7471 69.6323 14.1538 69.6368 13.5553C69.6368 10.9574 71.6534 8.97607 74.1743 8.97607C76.7893 8.97607 78.4319 10.9951 78.4319 12.6235C78.4319 13.4083 77.9463 13.8389 77.0691 13.8389L71.4652 13.8354ZM76.6388 12.4517C76.433 11.3681 75.463 10.6962 74.1919 10.6962C72.9785 10.6962 71.8944 11.3681 71.5593 12.4517H76.6388Z" fill="#1A1623"/>
<path d="M81.5842 14.4722V17.1254C81.5842 17.7984 81.2855 18.1161 80.6882 18.1161C80.0721 18.1161 79.7734 17.7984 79.7734 17.1254V6.00075C79.7734 5.32774 80.0721 4.97241 80.6882 4.97241C81.2855 4.97241 81.5842 5.32539 81.5842 6.00075V12.0366L84.4414 9.51404C84.6239 9.34165 84.8631 9.24204 85.1139 9.23401C85.6184 9.23401 86.0099 9.58698 86.0099 10.0741C86.0052 10.2176 85.9674 10.3581 85.8994 10.4847C85.8315 10.6112 85.7353 10.7203 85.6184 10.8036L82.6859 13.2144L86.1228 16.4841C86.4214 16.7642 86.5143 17.0077 86.5143 17.2501C86.5129 17.4743 86.4246 17.6893 86.268 17.8497C86.1115 18.0101 85.8988 18.1035 85.6748 18.1102C85.4502 18.1102 85.2045 18.016 84.927 17.7572L81.5842 14.4722Z" fill="#1A1623"/>
<path d="M95.1215 9.10807C95.7 9.10807 95.9998 9.42575 95.9998 10.0788V16.943C95.9998 17.6913 95.8128 18.0642 95.1591 18.0642C94.5982 18.0642 94.3184 17.6348 94.2255 16.7382C93.7763 17.5618 92.6005 18.1207 91.4036 18.1207C88.9203 18.1207 87.1836 16.1205 87.1836 13.5615C87.1836 10.9635 88.9015 8.98218 91.4036 8.98218C92.6182 8.98218 93.794 9.48693 94.2608 10.4023C94.2984 9.74225 94.4665 9.10807 95.1215 9.10807ZM88.9967 13.5556C88.9967 15.1063 90.0796 16.3205 91.5917 16.3205C93.1038 16.3205 94.1879 15.1063 94.1879 13.5556C94.1879 12.0601 93.105 10.7894 91.5917 10.7894C90.0784 10.7894 88.9955 12.0601 88.9955 13.5556H88.9967Z" fill="#1A1623"/>
<path d="M25.4885 23.9792C27.9717 23.9792 29.9848 21.9649 29.9848 19.48C29.9848 16.9951 27.9717 14.9807 25.4885 14.9807C23.0052 14.9807 20.9922 16.9951 20.9922 19.48C20.9922 21.9649 23.0052 23.9792 25.4885 23.9792Z" fill="#1A1623"/>
<path d="M19.3638 13.0012C19.3003 13.1824 19.2455 13.3675 19.1992 13.5566C19.2122 13.5213 19.2251 13.4872 19.2368 13.4519C19.2662 13.3342 19.2992 13.2307 19.3344 13.1212C19.345 13.0812 19.3556 13.0412 19.3638 13.0012Z" fill="#1A1623"/>
<path d="M15.0156 7.50195C15.1144 7.50784 15.2132 7.51254 15.3131 7.51372C15.2143 7.50666 15.1156 7.50195 15.0156 7.50195Z" fill="#1A1623"/>
<path d="M10.4805 12.0013C10.4812 13.0572 10.8529 14.0793 11.5306 14.8887C12.2083 15.6981 13.1489 16.2433 14.1878 16.4288C15.2266 16.6143 16.2976 16.4284 17.2133 15.9036C18.1289 15.3788 18.8311 14.5484 19.1967 13.5579C19.2422 13.3689 19.2971 13.1838 19.3613 13.0026C19.7722 11.8289 20.5373 10.8119 21.5509 10.0923C22.5645 9.3727 23.7765 8.98601 25.0193 8.9857H25.1299C25.2286 8.9857 25.3262 8.99158 25.4238 8.99747H25.4685C26.2949 8.99742 27.1053 8.76951 27.8108 8.33877C28.5163 7.90803 29.0895 7.29111 29.4675 6.55574C29.8456 5.82037 30.0138 4.99498 29.9538 4.1702C29.8938 3.34541 29.6078 2.55312 29.1273 1.88031C28.6468 1.20749 27.9903 0.680171 27.23 0.356233C26.4696 0.0322959 25.6347 -0.0757305 24.817 0.0440141C23.9993 0.163759 23.2303 0.506644 22.5946 1.03503C21.9589 1.56341 21.4809 2.25685 21.2132 3.03924C21.1827 3.15689 21.1474 3.27455 21.1086 3.39221C20.7129 4.59051 19.9498 5.63348 18.9277 6.3728C17.9056 7.11211 16.6765 7.51013 15.4153 7.51026H15.313C15.2131 7.51026 15.1143 7.51026 15.0156 7.4985H14.9768C14.386 7.49865 13.8011 7.61525 13.2555 7.84163C12.7098 8.06802 12.214 8.39975 11.7965 8.81789C11.379 9.23603 11.0478 9.73238 10.822 10.2786C10.5962 10.8248 10.4802 11.4102 10.4805 12.0013Z" fill="#1A1623"/>
<path d="M25.4228 8.99858C25.3253 8.99858 25.2277 8.98799 25.1289 8.98682C25.2265 8.99388 25.3241 8.99858 25.4228 8.99858Z" fill="#1A1623"/>
<path d="M21.1094 3.39936C21.1482 3.2817 21.1835 3.16405 21.214 3.04639C21.2145 3.04871 21.2145 3.05112 21.214 3.05345C21.1846 3.16522 21.1517 3.27582 21.1164 3.38407C21.1137 3.38899 21.1114 3.3941 21.1094 3.39936Z" fill="#1A1623"/>
<path d="M10.6016 13.0012C10.6651 13.1824 10.7199 13.3675 10.7662 13.5566C10.7532 13.5213 10.7415 13.4872 10.7297 13.4519C10.6992 13.3342 10.6674 13.2307 10.631 13.1212C10.6204 13.0812 10.611 13.0412 10.6016 13.0012Z" fill="#1A1623"/>
<path d="M14.9486 7.50195C14.8511 7.50784 14.7511 7.51254 14.6523 7.51372C14.7499 7.50666 14.8487 7.50195 14.9486 7.50195Z" fill="#1A1623"/>
<path d="M19.4833 12.0013C19.4826 13.0572 19.1109 14.0793 18.4332 14.8887C17.7554 15.6981 16.8149 16.2433 15.776 16.4288C14.7372 16.6143 13.6662 16.4284 12.7505 15.9036C11.8348 15.3788 11.1327 14.5484 10.767 13.5579C10.7216 13.3689 10.6667 13.1838 10.6024 13.0026C10.1915 11.8287 9.42619 10.8116 8.41235 10.092C7.39851 9.37234 6.18625 8.98576 4.94325 8.9857H4.83273C4.73396 8.9857 4.63637 8.99158 4.53995 8.99747H4.4941C3.66753 8.99757 2.85693 8.76973 2.15131 8.33898C1.44569 7.90822 0.872345 7.29122 0.49424 6.55572C0.116136 5.82023 -0.0521027 4.99469 0.00800174 4.16977C0.0681062 3.34485 0.354228 2.55246 0.834946 1.87962C1.31566 1.20678 1.97238 0.679523 2.73298 0.355743C3.49358 0.0319624 4.32863 -0.075812 5.14644 0.0442553C5.96424 0.164323 6.73316 0.507588 7.36876 1.03635C8.00435 1.56512 8.48203 2.25893 8.74934 3.04159C8.78109 3.15925 8.81637 3.27691 8.85517 3.39456C9.25077 4.59268 10.0137 5.63551 11.0356 6.3748C12.0575 7.1141 13.2863 7.51224 14.5473 7.51262H14.6507C14.7495 7.51262 14.8494 7.51262 14.947 7.50085H14.9858C15.5764 7.50085 16.1613 7.61726 16.7069 7.84342C17.2526 8.06959 17.7484 8.40109 18.166 8.819C18.5836 9.2369 18.9149 9.73303 19.1409 10.279C19.367 10.8251 19.4833 11.4103 19.4833 12.0013Z" fill="#1A1623"/>
<path d="M4.54297 8.99858C4.63939 8.99858 4.73698 8.98799 4.83574 8.98682C4.73933 8.99388 4.64174 8.99858 4.54297 8.99858Z" fill="#1A1623"/>
<path d="M8.85582 3.39936C8.81702 3.2817 8.78175 3.16405 8.75 3.04639C8.75 3.04639 8.75 3.04639 8.75 3.05345C8.7794 3.16522 8.81232 3.27582 8.84877 3.38407C8.85229 3.38642 8.85465 3.3923 8.85582 3.39936Z" fill="#1A1623"/>
<path d="M7.72502 16.3546C8.34345 16.9879 8.7614 17.7897 8.92651 18.6596C9.09162 19.5295 8.99655 20.4288 8.65322 21.2449C8.30988 22.061 7.73355 22.7575 6.99639 23.2474C6.25924 23.7372 5.39405 23.9984 4.50919 23.9984C3.62432 23.9984 2.75913 23.7372 2.02198 23.2474C1.28483 22.7575 0.708488 22.061 0.365154 21.2449C0.0218199 20.4288 -0.0732456 19.5295 0.0918648 18.6596C0.256975 17.7897 0.674921 16.9879 1.29335 16.3546C1.34352 16.3076 1.3929 16.2593 1.4415 16.2099C2.54704 15.0888 3.16566 13.5763 3.16289 12.0012C3.16495 10.4244 2.54459 8.91052 1.4368 7.78907L1.29335 7.64788C0.674518 7.01452 0.256225 6.2125 0.0908781 5.34231C-0.0744691 4.47211 0.0204824 3.57244 0.363837 2.75601C0.707191 1.93958 1.28368 1.24269 2.02108 0.75265C2.75847 0.262613 3.62399 0.0012207 4.50919 0.0012207C5.39438 0.0012207 6.2599 0.262613 6.99729 0.75265C7.73469 1.24269 8.31118 1.93958 8.65454 2.75601C8.99789 3.57244 9.09284 4.47211 8.92749 5.34231C8.76215 6.2125 8.34385 7.01452 7.72502 7.64788L7.57569 7.78907C6.47022 8.91174 5.85054 10.4246 5.85054 12.0007C5.85054 13.5768 6.47022 15.0896 7.57569 16.2122C7.62508 16.2617 7.67328 16.3099 7.72384 16.357L7.72502 16.3546Z" fill="#1A1623"/>
</g>
<defs>
<clipPath id="clip0_814_29391">
<rect width="96" height="24" fill="white"/>
</clipPath>
</defs>
</svg>
