<svg width="24" height="24" viewBox="0 0 24 24" fill="none" xmlns="http://www.w3.org/2000/svg">
<path d="M11.3665 1.94959C11.5659 1.33594 12.4341 1.33594 12.6335 1.94959L14.5446 7.83156C14.6338 8.10599 14.8895 8.2918 15.1781 8.2918H21.3628C22.008 8.2918 22.2763 9.11745 21.7543 9.49671L16.7508 13.132C16.5173 13.3016 16.4196 13.6022 16.5088 13.8766L18.42 19.7586C18.6193 20.3723 17.917 20.8825 17.395 20.5033L12.3915 16.868C12.1581 16.6984 11.8419 16.6984 11.6085 16.868L6.605 20.5033C6.083 20.8825 5.38065 20.3723 5.58004 19.7586L7.49121 13.8766C7.58037 13.6022 7.48269 13.3016 7.24925 13.132L2.24574 9.49671C1.72374 9.11745 1.99201 8.2918 2.63724 8.2918H8.82191C9.11047 8.2918 9.3662 8.10599 9.45537 7.83156L11.3665 1.94959Z" fill="#F0D95E"/>
</svg>
